<svg width="74" height="31" viewBox="0 0 74 31" fill="none" xmlns="http://www.w3.org/2000/svg">
<circle cx="16.0997" cy="15.3797" r="15.3797" fill="#5669FF"/>
<g clip-path="url(#clip0_162_2909)">
<path d="M16.0997 26.236C22.0955 26.236 26.956 21.3755 26.956 15.3798C26.956 9.38399 22.0955 4.52347 16.0997 4.52347C10.1039 4.52347 5.24341 9.38399 5.24341 15.3798C5.24341 21.3755 10.1039 26.236 16.0997 26.236Z" fill="#F0F0F0"/>
<path d="M7.72485 8.47071H24.4744C23.8558 7.72158 23.1382 7.05727 22.3423 6.49686H9.85697C9.06103 7.05719 8.34353 7.72154 7.72485 8.47071Z" fill="#F0F0F0"/>
<path d="M5.24341 15.3802C5.24341 15.713 5.25923 16.042 5.28853 16.3672H26.9109C26.9402 16.042 26.956 15.713 26.956 15.3802C26.956 15.0475 26.9402 14.7185 26.9109 14.3933H5.28853C5.25923 14.7185 5.24341 15.0475 5.24341 15.3802Z" fill="#F0F0F0"/>
<path d="M6.42763 20.3145H25.7725C26.0922 19.6892 26.3529 19.0288 26.5476 18.3407H5.65259C5.8472 19.0288 6.108 19.6892 6.42763 20.3145Z" fill="#F0F0F0"/>
<path d="M9.85697 24.2621H22.3423C23.1382 23.7017 23.8557 23.0374 24.4744 22.2882H7.72485C8.34353 23.0373 9.06103 23.7017 9.85697 24.2621Z" fill="#F0F0F0"/>
<path d="M5.65234 12.4195H26.5474C26.3527 11.7313 26.092 11.0709 25.7723 10.4456H6.42742C6.1078 11.0709 5.84699 11.7313 5.65234 12.4195Z" fill="#F0F0F0"/>
<path d="M10.4348 6.49738H22.3416C20.5758 5.25408 18.4228 4.52353 16.099 4.52353C14.6829 4.52353 12.2007 5.25408 10.4348 6.49738Z" fill="#D80027"/>
<path d="M15.6277 10.4449H25.7721C25.4111 9.73871 24.9751 9.0772 24.4745 8.47107H15.6277V10.4449Z" fill="#D80027"/>
<path d="M15.6277 14.3923H26.9108C26.8498 13.7145 26.7271 13.0545 26.5472 12.4184H15.6277V14.3923Z" fill="#D80027"/>
<path d="M5.65177 18.3414H26.5467C26.7266 17.7054 26.8494 17.0453 26.9104 16.3676H5.28809C5.34915 17.0453 5.47188 17.7053 5.65177 18.3414Z" fill="#D80027"/>
<path d="M7.72467 22.2888H24.4742C24.9748 21.6825 25.4109 21.0211 25.7719 20.3149H6.427C6.78802 21.0211 7.22405 21.6826 7.72467 22.2888Z" fill="#D80027"/>
<path d="M16.0989 26.2365C18.4227 26.2365 20.5757 25.5059 22.3415 24.2626H9.8562C11.622 25.5059 13.7751 26.2365 16.0989 26.2365Z" fill="#D80027"/>
<path d="M5.65222 12.4186C5.47233 13.0547 5.34964 13.7147 5.28857 14.3924H16.0997V4.52307C11.1304 4.52307 6.94106 7.86189 5.65222 12.4186Z" fill="#0052B4"/>
<path d="M11.7061 7.35562L12.409 9.51904H14.684L12.8436 10.8562L13.5464 13.0198L11.7061 11.6827L9.86564 13.0198L10.5687 10.8562L8.72827 9.51904H11.0031L11.7061 7.35562Z" fill="#F0F0F0"/>
</g>
<rect x="1.71997" y="1" width="71.28" height="28.7595" rx="14.3798" stroke="#5669FF" stroke-width="2"/>
<g clip-path="url(#clip1_162_2909)">
<path d="M58.6202 26.236C64.616 26.236 69.4765 21.3755 69.4765 15.3798C69.4765 9.38399 64.616 4.52347 58.6202 4.52347C52.6244 4.52347 47.7639 9.38399 47.7639 15.3798C47.7639 21.3755 52.6244 26.236 58.6202 26.236Z" fill="#F0F0F0"/>
<path d="M58.6205 4.52319C53.9527 4.52319 49.9734 7.46932 48.4395 11.6034H68.8016C67.2676 7.46932 63.2883 4.52319 58.6205 4.52319Z" fill="#D80027"/>
<path d="M58.6205 26.2363C63.2883 26.2363 67.2676 23.2902 68.8015 19.1561H48.4395C49.9734 23.2902 53.9527 26.2363 58.6205 26.2363Z" fill="black"/>
<path d="M62.3962 14.1997H59.5641C59.5641 13.6783 59.1415 13.2556 58.6201 13.2556C58.0988 13.2556 57.6761 13.6783 57.6761 14.1997H54.844C54.844 14.7211 55.2981 15.1437 55.8195 15.1437H55.788C55.788 15.6651 56.2107 16.0877 56.7321 16.0877C56.7321 16.6091 57.1547 17.0318 57.6761 17.0318H59.5641C60.0855 17.0318 60.5082 16.6091 60.5082 16.0877C61.0296 16.0877 61.4522 15.6651 61.4522 15.1437H61.4208C61.9421 15.1437 62.3962 14.7211 62.3962 14.1997Z" fill="#FF9811"/>
</g>
<defs>
<clipPath id="clip0_162_2909">
<rect width="21.7126" height="21.7126" fill="white" transform="translate(5.24341 4.52347)"/>
</clipPath>
<clipPath id="clip1_162_2909">
<rect width="21.7126" height="21.7126" fill="white" transform="translate(47.7639 4.52347)"/>
</clipPath>
</defs>
</svg>
