<svg width="74" height="32" viewBox="0 0 74 32" fill="none" xmlns="http://www.w3.org/2000/svg">
<circle cx="16.0997" cy="16.1393" r="15.3797" fill="#5669FF"/>
<circle cx="16.72" cy="15.7595" r="3" fill="black" fill-opacity="0.15"/>
<path d="M7.71997 15.7595H9.71997M9.72003 22.7595L11.72 20.7595M16.72 22.7595V24.7595M21.72 20.7595L23.72 22.7595M9.71997 8.75952L11.72 10.7595M23.72 15.7595H25.72M21.7199 10.7595L23.7199 8.75952M16.72 6.75952V8.75952M19.72 15.7595C19.72 17.4164 18.3768 18.7595 16.72 18.7595C15.0631 18.7595 13.72 17.4164 13.72 15.7595C13.72 14.1027 15.0631 12.7595 16.72 12.7595C18.3768 12.7595 19.72 14.1027 19.72 15.7595Z" stroke="#F2FEFF" stroke-width="2" stroke-linecap="round" stroke-linejoin="round"/>
<rect x="1.71997" y="1.75952" width="71.28" height="28.7595" rx="14.3798" stroke="#5669FF" stroke-width="2"/>
<path d="M48.72 20.7595C56.672 22.3772 62.4029 12.5173 56.72 6.75952C61.7207 6.89096 65.72 10.871 65.72 15.7595C65.72 20.731 61.8388 24.7595 56.72 24.7595C53.4911 24.7595 50.3793 23.1914 48.72 20.7595Z" fill="#5669FF"/>
<path d="M48.72 20.7595C56.672 22.3772 62.4029 12.5173 56.72 6.75952C61.7207 6.89096 65.72 10.871 65.72 15.7595C65.72 20.731 61.8388 24.7595 56.72 24.7595C53.4911 24.7595 50.3793 23.1914 48.72 20.7595Z" stroke="#5669FF" stroke-width="2" stroke-linecap="round" stroke-linejoin="round"/>
</svg>
